Coordinates
version=1
nRows=13
nColumns=34
inDegrees=yes

Units are S.I. units (second, meters, Newtons, ...)
If the header above contains a line with 'inDegrees', this indicates whether rotational values are in degrees (yes) or radians (no).

endheader
time	pelvis_tilt	pelvis_list	pelvis_rotation	pelvis_tx	pelvis_ty	pelvis_tz	hip_flexion_r	hip_adduction_r	hip_rotation_r	knee_angle_r	ankle_angle_r	subtalar_angle_r	mtp_angle_r	hip_flexion_l	hip_adduction_l	hip_rotation_l	knee_angle_l	ankle_angle_l	subtalar_angle_l	mtp_angle_l	lumbar_extension	lumbar_bending	lumbar_rotation	arm_flex_r	arm_add_r	arm_rot_r	elbow_flex_r	pro_sup_r	arm_flex_l	arm_add_l	arm_rot_l	elbow_flex_l	pro_sup_l
     14.05000000	    -10.70789649	     -1.80580669	     -5.13843332	      0.16686556	      0.94193376	      0.20938252	     -2.91900957	     -5.03980992	     -2.63955554	      0.00000000	     13.90258072	      3.43434166	      0.00000000	     15.21466464	     -2.68787632	    -15.07896501	      0.00000000	      5.20746048	     10.27827928	      0.00000000	      0.89402287	     -2.96935220	      3.41747413	     -1.77538232	     -9.33082559	      9.83291939	     27.04699819	     59.49886908	     -3.15790800	    -23.17263194	     16.87280594	     18.41578932	     47.65181769
     14.06666670	    -10.89288377	     -2.13931212	     -4.90097983	      0.17676028	      0.94385826	      0.20629323	     -2.10947677	     -4.74834878	     -2.58747390	      0.00000000	     13.71764523	      3.40955714	      0.00000000	     14.55044234	     -2.68926227	    -15.22109945	      0.00000000	      6.23881658	     11.01293788	      0.00000000	      1.43661292	     -2.67077138	      3.55907556	     -2.17524172	     -9.20229147	     10.00443392	     26.44186679	     59.54791818	     -0.04261845	    -23.83165621	     16.17795489	     21.61226511	     47.71401100
     14.08333330	    -10.93351683	     -2.42585733	     -4.75619268	      0.18551271	      0.94583047	      0.20315561	     -1.36744706	     -4.50522536	     -2.47643331	      0.00000000	     13.40821758	      3.21880291	      0.00000000	     13.78151864	     -2.70394953	    -15.66233779	      0.00000000	      7.17798051	     11.82759052	      0.00000000	      1.71731303	     -2.49312119	      3.77403419	     -2.44664555	     -9.04189122	     10.05643172	     25.84386791	     59.56603434	      3.25070451	    -24.40173784	     15.21843527	     25.86158575	     48.04357377
     14.10000000	    -10.82579029	     -2.72769236	     -4.43216353	      0.19518735	      0.94586349	      0.19944994	     -0.76794501	     -4.23351205	     -2.33919275	      0.00000000	     12.72894878	      2.42913969	      0.00000000	     12.96109539	     -2.73105343	    -16.30527182	      0.00000000	      8.15556253	     13.26716076	      0.00000000	      1.52547786	     -2.37595049	      2.58737798	     -2.06706215	     -8.65682838	      9.57415736	     25.88720900	     59.39274072	      4.72081406	    -25.27875571	     11.87739634	     33.34409911	     50.06845316
     14.11666670	    -10.76119251	     -3.04275443	     -4.02274943	      0.20652690	      0.94310217	      0.19520234	     -0.05719370	     -3.97751776	     -2.65311395	      0.00000000	     12.15532477	      2.19849158	      0.00000000	     12.30235299	     -2.74527086	    -16.23724693	      0.00000000	      8.58884417	     13.33645334	      0.00000000	      1.70578338	     -2.29965426	      2.62092905	     -2.02914019	     -8.61246886	     10.07173359	     24.65006628	     59.51319874	      9.19901880	    -25.00696610	     10.65542009	     36.45506273	     50.55646161
     14.13333330	    -10.44470717	     -3.36347387	     -3.49225703	      0.21926680	      0.94042147	      0.19126074	      0.41774106	     -3.74650683	     -2.86702363	      0.00000000	     11.41009863	      1.50304720	      0.00000000	     11.41067069	     -2.76052192	    -16.41027659	      0.00000000	      9.13151866	     13.92955620	      0.00000000	      1.49704820	     -2.28772412	      2.12160654	     -1.90140866	     -8.50981811	     10.61670311	     23.60828954	     59.57551100	     13.28172722	    -24.82075611	     10.09288966	     40.01234796	     51.33448333
     14.15000000	    -10.07285946	     -3.69492504	     -3.02037890	      0.23266938	      0.94114715	      0.18782712	      0.92992149	     -3.50944101	     -2.97638430	      0.00000000	     10.59026877	      0.68866226	      0.00000000	     10.41203523	     -2.82942069	    -16.76136473	      0.00000000	      9.65486811	     14.81057812	      0.00000000	      1.19302787	     -2.26387472	      1.25615827	     -1.67665223	     -8.34777735	     11.41140772	     22.47571763	     59.60507226	     16.90266479	    -24.59501100	     10.03891556	     43.00805484	     52.27370370
     14.16666670	     -9.95660242	     -4.03202847	     -2.56358799	      0.24742124	      0.94469180	      0.18444075	      1.75110906	     -3.27673277	     -3.50475453	      0.00000000	      9.83019082	      0.33219296	      0.00000000	      9.60071287	     -2.95127489	    -16.74972704	      0.00000000	     10.02191464	     15.33781828	      0.00000000	      1.36353424	     -2.13695077	     -0.08428859	     -1.66993422	     -8.18755457	     11.81214320	     21.81309341	     59.63241260	     19.83212827	    -24.22978680	      9.97564199	     44.39895877	     52.54966632
     14.18333330	     -9.31870275	     -4.23772164	     -2.61472328	      0.26328668	      0.95018780	      0.18192849	      2.04907425	     -3.14975517	     -3.39095960	      0.00000000	      9.17970167	      0.10570991	      0.00000000	      8.02998041	     -3.05615399	    -17.92882822	      0.00000000	     10.61460594	     16.63753801	      0.00000000	      1.01213304	     -2.16399872	     -0.79881845	     -0.89796949	     -7.81270403	     14.56082591	     18.59897967	     59.65434450	     22.78498261	    -23.95978722	     11.42171870	     44.72593639	     54.09914981
     14.20000000	     -9.14670443	     -4.42265553	     -2.53554944	      0.27890418	      0.95372141	      0.17876070	      2.74048920	     -3.01822089	     -3.69532826	      0.00000000	      8.44298709	      0.32445257	      0.00000000	      6.92891938	     -3.11478171	    -17.85787590	      0.00000000	     10.92361829	     16.69562719	      0.00000000	      1.14920828	     -2.09504351	     -1.66181463	     -1.08593275	     -7.57672688	     15.05381956	     17.93976772	     59.63712465	     24.78566759	    -23.23371691	     11.36247491	     45.28067399	     54.23125122
     14.21666670	     -8.49789473	     -4.58855494	     -2.53584714	      0.29259836	      0.95636916	      0.17563121	      2.93120214	     -2.90227509	     -4.06459338	      0.00000000	      8.05027298	      1.17331771	      0.00000000	      5.28570492	     -3.14992599	    -18.27192447	      0.00000000	     11.26844943	     16.97367488	      0.00000000	      0.92712656	     -2.03409924	     -2.28276775	     -0.39844870	     -7.17602879	     17.93351330	     15.25512622	     59.40942924	     27.42258190	    -22.18692197	     12.13557442	     43.31730120	     54.87042859
     14.23333330	     -7.91049126	     -4.75864573	     -2.22003983	      0.30500927	      0.95582483	      0.17224744	      3.15467683	     -2.77393125	     -4.16101484	      0.00000000	      7.52030141	      1.20824296	      0.00000000	      3.82564187	     -3.14377084	    -18.08132640	      0.00000000	     11.66497390	     17.07685102	      0.00000000	      0.40543513	     -1.88107133	     -3.14591655	     -0.12756780	     -6.97505359	     19.12610845	     14.49496207	     59.20932701	     29.48895422	    -21.28449249	     12.20674987	     43.12647782	     54.97107262
     14.25000000	     -7.33906799	     -4.92190229	     -1.86333774	      0.31704481	      0.95353767	      0.16929431	      3.38452962	     -2.63611356	     -4.36911660	      0.00000000	      6.78915495	      1.31055087	      0.00000000	      2.44093294	     -3.14402476	    -17.96297591	      0.00000000	     12.30030273	     17.33559366	      0.00000000	      0.11251420	     -1.70361254	     -3.97581879	      0.36689461	     -6.83295716	     21.23848964	     13.30133114	     58.91897276	     31.59626639	    -20.19231102	     12.31420224	     41.86015960	     54.91621150
